<svg width="16" height="8" viewBox="0 0 16 8" fill="none" xmlns="http://www.w3.org/2000/svg">
<path d="M11.9864 0C12.737 0 13.4151 0.175758 14.0204 0.527274C14.6379 0.866667 15.1222 1.34546 15.4733 1.96364C15.8244 2.5697 16 3.24849 16 4C16 4.75152 15.8244 5.43636 15.4733 6.05455C15.1222 6.66061 14.6379 7.13939 14.0204 7.49091C13.4151 7.8303 12.737 8 11.9864 8C11.0783 8 10.3095 7.82424 9.67991 7.47273C9.06243 7.12121 8.50549 6.63636 8.00908 6.01818C7.53689 6.63636 6.986 7.12121 6.35641 7.47273C5.73893 7.82424 4.97616 8 4.0681 8C3.30534 8 2.60916 7.8303 1.97957 7.49091C1.36209 7.13939 0.87779 6.66061 0.526674 6.05455C0.175558 5.43636 0 4.75152 0 4C0 3.23636 0.175558 2.55152 0.526674 1.94546C0.87779 1.33939 1.36209 0.866667 1.97957 0.527274C2.60916 0.175758 3.30534 0 4.0681 0C4.97616 0 5.73893 0.175758 6.35641 0.527274C6.986 0.878788 7.53689 1.36364 8.00908 1.98182C8.50549 1.36364 9.06243 0.878788 9.67991 0.527274C10.3095 0.175758 11.0783 0 11.9864 0ZM4.3042 5.6C4.7885 5.6 5.2062 5.46667 5.55732 5.2C5.90844 4.92121 6.26561 4.52121 6.62883 4C6.26561 3.47879 5.90844 3.08485 5.55732 2.81818C5.2062 2.53939 4.7885 2.4 4.3042 2.4C3.85622 2.4 3.48089 2.55152 3.17821 2.85455C2.87552 3.15758 2.72418 3.53939 2.72418 4C2.72418 4.46061 2.87552 4.84242 3.17821 5.14545C3.48089 5.44848 3.85622 5.6 4.3042 5.6ZM11.6958 5.6C12.1438 5.6 12.5131 5.44848 12.8036 5.14545C13.1063 4.84242 13.2577 4.46061 13.2577 4C13.2577 3.53939 13.1063 3.15758 12.8036 2.85455C12.5131 2.55152 12.1438 2.4 11.6958 2.4C11.2115 2.4 10.7877 2.53939 10.4245 2.81818C10.0734 3.08485 9.72834 3.47879 9.38933 4C9.72834 4.52121 10.0734 4.92121 10.4245 5.2C10.7877 5.46667 11.2115 5.6 11.6958 5.6Z" fill="#04B6FF"/>
</svg>
