<svg width="21" height="16" viewBox="0 0 21 16" fill="none" xmlns="http://www.w3.org/2000/svg">
<path d="M17.3889 4.20671C16.7779 2.80272 15.7234 1.63779 14.387 0.890438C13.0505 0.143088 11.5059 -0.145456 9.98985 0.0690207C8.47376 0.283498 7.06981 0.989165 5.99314 2.07789C4.91647 3.16661 4.22647 4.57833 4.02888 6.09671C3.07547 6.32503 2.23911 6.89555 1.67862 7.6999C1.11814 8.50426 0.872569 9.48644 0.988548 10.4599C1.10453 11.4334 1.57398 12.3304 2.30775 12.9806C3.04152 13.6307 3.98851 13.9888 4.96888 13.9867C5.2341 13.9867 5.48845 13.8814 5.67599 13.6938C5.86353 13.5063 5.96888 13.2519 5.96888 12.9867C5.96888 12.7215 5.86353 12.4671 5.67599 12.2796C5.48845 12.0921 5.2341 11.9867 4.96888 11.9867C4.43845 11.9867 3.92974 11.776 3.55467 11.4009C3.1796 11.0259 2.96888 10.5171 2.96888 9.98671C2.96888 9.45628 3.1796 8.94757 3.55467 8.5725C3.92974 8.19743 4.43845 7.98671 4.96888 7.98671C5.2341 7.98671 5.48845 7.88135 5.67599 7.69382C5.86353 7.50628 5.96888 7.25193 5.96888 6.98671C5.97144 5.80399 6.39317 4.66046 7.15915 3.75929C7.92514 2.85813 8.98577 2.25766 10.1526 2.06459C11.3195 1.87151 12.517 2.09832 13.5325 2.70472C14.5479 3.31112 15.3155 4.25785 15.6989 5.37671C15.756 5.54855 15.8588 5.70164 15.9962 5.81964C16.1335 5.93765 16.3004 6.01613 16.4789 6.04671C17.1449 6.17258 17.7488 6.52031 18.1919 7.03325C18.6351 7.54618 18.8914 8.19407 18.9193 8.87135C18.9471 9.54863 18.7448 10.2154 18.3452 10.7629C17.9456 11.3105 17.3724 11.7066 16.7189 11.8867C16.4616 11.953 16.2412 12.1188 16.1062 12.3476C15.9712 12.5764 15.9326 12.8495 15.9989 13.1067C16.0652 13.364 16.231 13.5844 16.4598 13.7194C16.6886 13.8544 16.9616 13.893 17.2189 13.8267C18.2713 13.5486 19.2042 12.9347 19.8759 12.0782C20.5476 11.2217 20.9215 10.1693 20.9407 9.08098C20.96 7.99264 20.6235 6.92775 19.9825 6.04803C19.3414 5.16831 18.4308 4.52181 17.3889 4.20671ZM11.6789 6.27671C11.5838 6.18567 11.4716 6.11431 11.3489 6.06671C11.1054 5.96669 10.8323 5.96669 10.5889 6.06671C10.4661 6.11431 10.354 6.18567 10.2589 6.27671L7.25888 9.27671C7.07058 9.46502 6.96479 9.72041 6.96479 9.98671C6.96479 10.253 7.07058 10.5084 7.25888 10.6967C7.44719 10.885 7.70258 10.9908 7.96888 10.9908C8.23519 10.9908 8.49058 10.885 8.67888 10.6967L9.96888 9.39671V14.9867C9.96888 15.2519 10.0742 15.5063 10.2618 15.6938C10.4493 15.8814 10.7037 15.9867 10.9689 15.9867C11.2341 15.9867 11.4885 15.8814 11.676 15.6938C11.8635 15.5063 11.9689 15.2519 11.9689 14.9867V9.39671L13.2589 10.6967C13.3518 10.7904 13.4624 10.8648 13.5843 10.9156C13.7062 10.9664 13.8369 10.9925 13.9689 10.9925C14.1009 10.9925 14.2316 10.9664 14.3535 10.9156C14.4753 10.8648 14.5859 10.7904 14.6789 10.6967C14.7726 10.6037 14.847 10.4931 14.8978 10.3713C14.9485 10.2494 14.9747 10.1187 14.9747 9.98671C14.9747 9.8547 14.9485 9.72399 14.8978 9.60213C14.847 9.48028 14.7726 9.36967 14.6789 9.27671L11.6789 6.27671Z" fill="#04B6FF"/>
</svg>
