<svg width="661" height="234" fill="none" xmlns="http://www.w3.org/2000/svg"><g clip-path="url(#clip0)" fill-rule="evenodd" clip-rule="evenodd"><path d="M111.92 146.121c1.124 0 2.248-.643 2.729-1.606l49.457-85.585c10.919-18.787 4.496-42.873-14.452-53.792C130.867-5.78 106.781.642 95.862 19.59l-70.01 121.714c-1.284 2.087.322 4.817 2.73 4.817h29.706c1.124 0 2.248-.643 2.73-1.606l62.784-108.868c1.927-3.533 6.423-4.657 9.795-2.57 3.533 1.928 4.657 6.424 2.569 9.796l-56.682 98.431c-1.285 2.087.321 4.817 2.73 4.817h29.706z" fill="#FF6A14"/><path d="M139.378 155.756c-.643-.964-1.606-1.606-2.73-1.606H39.34C17.663 154.15 0 171.813 0 193.49c0 21.677 17.663 39.34 39.34 39.34h138.896c2.409 0 4.015-2.729 2.73-4.817l-14.773-25.691c-.642-.964-1.605-1.606-2.729-1.606H39.34a7.196 7.196 0 01-7.225-7.226 7.196 7.196 0 017.225-7.226h112.081c2.408 0 4.014-2.729 2.729-4.817l-14.772-25.691z" fill="#AADB1E"/><path d="M136.487 128.137a2.917 2.917 0 000 3.211l47.369 82.053c10.919 18.787 34.845 25.209 53.792 14.451 18.787-10.919 25.21-34.844 14.452-53.792L183.856 55.88c-1.284-2.088-4.335-2.088-5.62 0l-14.773 25.69a2.918 2.918 0 000 3.212l60.858 105.336c1.927 3.532.803 7.868-2.569 9.795-3.533 1.926-7.869.802-9.795-2.57l-55.077-94.898c-1.285-2.087-4.336-2.087-5.62 0l-14.773 25.692z" fill="#00B5E2"/></g><path d="M291.876 61V7.625h21.96c5.49 0 9.709 1.143 12.658 3.43 2.948 2.288 4.422 5.49 4.422 9.608 0 2.593-.711 4.906-2.135 6.94-1.423 1.982-3.177 3.456-5.261 4.422 6.405 2.592 9.607 6.913 9.607 12.962 0 4.931-1.83 8.845-5.49 11.743-3.609 2.847-8.082 4.27-13.42 4.27h-22.341zm10.065-23.79v14.792h11.666c6.304 0 9.455-2.465 9.455-7.396 0-4.93-3.151-7.396-9.455-7.396h-11.666zm0-20.74v11.895h11.133c2.846 0 4.905-.483 6.176-1.45 1.271-.965 1.906-2.464 1.906-4.498 0-2.033-.635-3.533-1.906-4.499-1.271-.965-3.33-1.448-6.176-1.448h-11.133zm72.291 10.98c4.118 3.507 6.177 8.387 6.177 14.64 0 6.252-2.059 11.158-6.177 14.716-4.066 3.508-8.895 5.262-14.487 5.262-5.592 0-10.447-1.754-14.564-5.262-4.067-3.558-6.1-8.464-6.1-14.716 0-6.253 2.033-11.133 6.1-14.64 4.117-3.559 8.972-5.338 14.564-5.338 5.592 0 10.421 1.78 14.487 5.338zm-22.189 22.646c2.136 1.983 4.703 2.974 7.702 2.974 2.999 0 5.566-.991 7.701-2.974 2.135-1.982 3.203-4.651 3.203-8.006 0-3.355-1.068-6.024-3.203-8.007-2.135-1.982-4.702-2.973-7.701-2.973-2.999 0-5.566.991-7.702 2.974-2.135 1.982-3.202 4.65-3.202 8.006 0 3.355 1.067 6.024 3.202 8.006zm70.392-26.916V61h-9.303V31.872h-12.048l-1.753 18.453c-.407 3.965-1.398 6.837-2.974 8.616-1.576 1.729-3.787 2.593-6.634 2.593-1.83 0-3.609-.178-5.337-.534l1.296-8.464c.762.305 1.423.458 1.982.458 1.576 0 2.466-1.017 2.669-3.05l2.593-26.764h29.509zm19.126 0v24.629l15.708-24.63h9.912V61h-9.15V36.371L442.323 61h-9.912V23.18h9.15zm44.741 0v13.648h15.403V23.18h9.15V61h-9.15V45.216h-15.403V61h-9.15V23.18h9.15zm62.6 22.951l7.778 5.033c-3.61 7.269-9.506 10.904-17.691 10.904-5.693 0-10.446-1.83-14.258-5.49-3.762-3.711-5.643-8.54-5.643-14.488 0-5.897 1.932-10.7 5.795-14.412 3.863-3.71 8.566-5.566 14.106-5.566 4.22 0 7.829.915 10.828 2.745 2.999 1.78 5.16 4.296 6.481 7.549l-7.854 5.185c-1.982-4.32-5.159-6.481-9.531-6.481-2.897 0-5.312 1.016-7.244 3.05-1.881 1.982-2.821 4.626-2.821 7.93 0 3.355.94 6.024 2.821 8.006 1.881 1.983 4.296 2.974 7.244 2.974 2.44 0 4.423-.56 5.948-1.678 1.576-1.169 2.923-2.923 4.041-5.26zm23.982-8.464h9.15c4.067 0 7.32 1.017 9.76 3.05 2.491 1.983 3.736 4.83 3.736 8.54 0 3.711-1.245 6.609-3.736 8.693-2.44 2.033-5.693 3.05-9.76 3.05h-18.453V23.18h9.303v14.487zm0 7.32v8.693h7.854c3.66 0 5.49-1.474 5.49-4.423 0-2.846-1.83-4.27-5.49-4.27h-7.854zm31.343-21.807h9.608v12.352l.838-1.22 1.754-2.135 7.93-8.997h11.285l-13.725 15.402L638.387 61h-11.209l-11.361-15.555-1.982 2.211V61h-9.608V23.18zM645.467 61V23.18h9.607V61h-9.607zm-.458-43.31V7.625h10.523V17.69h-10.523zM336.864 92.487c5.236 5.287 7.854 11.895 7.854 19.825s-2.618 14.539-7.854 19.825c-5.236 5.287-11.768 7.931-19.597 7.931-7.828 0-14.36-2.644-19.596-7.931-5.236-5.286-7.854-11.895-7.854-19.825s2.618-14.538 7.854-19.825c5.236-5.287 11.768-7.93 19.596-7.93 7.829 0 14.361 2.643 19.597 7.93zm-31.949 33.322c3.253 3.304 7.371 4.956 12.352 4.956 4.982 0 9.1-1.652 12.353-4.956 3.253-3.355 4.88-7.854 4.88-13.497 0-5.642-1.627-10.116-4.88-13.42-3.253-3.355-7.371-5.032-12.353-5.032-4.981 0-9.099 1.677-12.352 5.032-3.254 3.304-4.88 7.778-4.88 13.42 0 5.643 1.626 10.142 4.88 13.497zM363.028 139h-9.302v-37.82h33.55V139h-9.303v-29.128h-14.945V139zm62.088-37.82v8.387h-10.828V139h-9.302v-29.433h-10.828v-8.387h30.958zm16.743 0v24.629l15.707-24.629h9.913V139h-9.15v-24.629L442.621 139h-9.912v-37.82h9.15zm34.474 12.352V101.18h8.997v11.209c0 5.185 2.313 7.777 6.939 7.777 2.339 0 4.143-.839 5.414-2.516 1.322-1.678 1.983-3.914 1.983-6.71v-9.76h8.997V139h-8.997v-15.021c-2.237 3.05-5.338 4.575-9.303 4.575-4.321 0-7.752-1.322-10.294-3.965-2.491-2.644-3.736-6.329-3.736-11.057zm51.434-12.352v13.649h15.402V101.18h9.151V139h-9.151v-15.784h-15.402V139h-9.15v-37.82h9.15zM562.611 139v-37.82h9.608V139h-9.608zm-.457-43.31V85.624h10.523V95.69h-10.523zM291.876 217v-53.375h10.599l17.004 42.395 17.004-42.395h10.598V217h-9.76v-32.635l-1.448 4.575-1.144 3.584L324.282 217h-9.607l-10.447-24.476-1.143-3.584-1.449-4.575V217h-9.76zm101.941-16.623h-29.128c.305 2.898 1.398 5.211 3.279 6.939 1.881 1.678 4.245 2.516 7.091 2.516 4.677 0 8.159-2.313 10.447-6.938l7.167 4.117c-3.558 7.371-9.48 11.057-17.766 11.057-5.389 0-9.989-1.856-13.802-5.567-3.761-3.761-5.642-8.565-5.642-14.411s1.906-10.624 5.719-14.335c3.863-3.762 8.591-5.643 14.182-5.643 5.389 0 9.811 1.779 13.268 5.338 3.457 3.558 5.185 8.082 5.185 13.572v3.355zm-18.758-14.945c-2.491 0-4.651.737-6.481 2.211-1.83 1.475-3.126 3.381-3.889 5.719h20.283c-.458-2.491-1.551-4.422-3.279-5.795-1.728-1.423-3.94-2.135-6.634-2.135zm27.131 47.123V179.18h9.608v5.413c1.321-1.931 3.126-3.482 5.413-4.651 2.339-1.22 4.906-1.83 7.702-1.83 4.931 0 9.048 1.805 12.352 5.414 3.355 3.609 5.033 8.464 5.033 14.564 0 5.947-1.754 10.777-5.261 14.487-3.508 3.66-7.829 5.491-12.963 5.491-5.134 0-9.226-1.907-12.276-5.719v20.206h-9.608zm27.298-42.243c-2.034-2.135-4.575-3.202-7.625-3.202s-5.592 1.067-7.625 3.202c-2.034 2.084-3.05 4.677-3.05 7.778s1.016 5.719 3.05 7.854c2.033 2.084 4.575 3.126 7.625 3.126s5.591-1.042 7.625-3.126c2.033-2.135 3.05-4.753 3.05-7.854s-1.017-5.694-3.05-7.778zm57.237 10.065h-29.128c.305 2.898 1.398 5.211 3.279 6.939 1.88 1.678 4.244 2.516 7.091 2.516 4.677 0 8.159-2.313 10.446-6.938l7.168 4.117c-3.559 7.371-9.481 11.057-17.767 11.057-5.388 0-9.988-1.856-13.801-5.567-3.762-3.761-5.643-8.565-5.643-14.411s1.907-10.624 5.719-14.335c3.864-3.762 8.591-5.643 14.183-5.643 5.388 0 9.811 1.779 13.268 5.338 3.456 3.558 5.185 8.082 5.185 13.572v3.355zm-18.758-14.945c-2.491 0-4.651.737-6.481 2.211-1.83 1.475-3.127 3.381-3.889 5.719h20.283c-.458-2.491-1.551-4.422-3.279-5.795-1.729-1.423-3.94-2.135-6.634-2.135zm44.609-6.252h8.997v13.115l.687-.991c.66-.966 1.118-1.576 1.372-1.831l8.693-10.293h11.056l-13.878 15.402L546.126 217H535.07l-11.209-16.089-2.288 2.516V217h-8.997v-13.573l-2.288-2.516L499.079 217h-11.056l16.623-22.418-13.878-15.402h11.056l8.693 10.293c.254.255.712.865 1.373 1.831l.686.991V179.18zm40.59 37.82v-37.82h9.608V217h-9.608zm-.457-43.31v-10.065h10.522v10.065h-10.522z" fill="#131E29"/><defs><clipPath id="clip0"><path fill="#fff" d="M0 0h257.399v233.151H0z"/></clipPath></defs></svg>