<svg width="17" height="17" fill="none" xmlns="http://www.w3.org/2000/svg"><g clip-path="url(#clip0)" fill="#101836"><path d="M16.401 9.84c.508-4.268-.243-6.963-1.598-8.182l.001-.001C12.618-.425 5.236-.733 2.621 1.75 1.446 2.965 1.033 4.748.987 6.955.942 9.163.888 13.3 4.742 14.421h.004l-.004 1.713s-.026.695.418.834c.507.165.736-.158 2.314-2.042 2.637.229 4.663-.295 4.894-.372.532-.178 3.546-.577 4.033-4.713zm-8.667 3.88s-1.67 2.082-2.19 2.623c-.17.175-.355.16-.353-.19 0-.228.013-2.844.013-2.844-3.267-.936-3.075-4.458-3.04-6.3.036-1.844.373-3.353 1.368-4.37C5.826.49 12.298.97 13.947 2.52c2.016 1.787 1.299 6.836 1.303 7.008-.415 3.453-2.857 3.671-3.306 3.82-.192.065-1.973.523-4.21.373z"/><path d="M8.657 3.044c-.272 0-.272.425 0 .428 2.116.017 3.859 1.491 3.878 4.196 0 .286.418.282.414-.003-.023-2.915-1.926-4.605-4.292-4.621z"/><path d="M11.44 7.22c-.006.282.411.295.415.01.034-1.607-.957-2.931-2.819-3.07-.272-.02-.3.408-.029.428 1.615.122 2.466 1.225 2.433 2.632zM10.994 9.048c-.35-.202-.706-.076-.853.123l-.309.399c-.156.202-.449.175-.449.175-2.135-.564-2.705-2.798-2.705-2.798s-.027-.303.169-.465l.385-.319c.193-.153.315-.521.118-.883-.524-.947-.876-1.274-1.055-1.524-.188-.236-.472-.29-.766-.13h-.007c-.612.358-1.283 1.03-1.069 1.72.367.728 1.04 3.05 3.184 4.803 1.008.83 2.603 1.68 3.28 1.876l.007.01c.667.222 1.316-.475 1.662-1.106v-.005c.154-.305.103-.594-.121-.784-.399-.388-1-.816-1.47-1.092z"/><path d="M9.328 5.74c.68.04 1.01.396 1.046 1.126.013.285.427.266.415-.02-.046-.953-.543-1.485-1.438-1.534-.273-.017-.298.412-.023.428z"/></g><defs><clipPath id="clip0"><path fill="#fff" d="M0 0h17v17H0z"/></clipPath></defs></svg>